<?xml version="1.0" encoding="UTF-8"?><svg id="b" xmlns="http://www.w3.org/2000/svg" xmlns:xlink="http://www.w3.org/1999/xlink" viewBox="0 0 19.91 20"><defs><linearGradient id="d" x1="-525.22" y1="73.02" x2="-525.22" y2="71.35" gradientTransform="translate(6044.74 -825.17) scale(11.49 11.55)" gradientUnits="userSpaceOnUse"><stop offset="0" stop-color="#1faf38"/><stop offset="1" stop-color="#60d669"/></linearGradient><linearGradient id="e" x1="-526.81" y1="70.55" x2="-526.81" y2="68.88" gradientTransform="translate(6284.31 -823.64) scale(11.91 11.96)" gradientUnits="userSpaceOnUse"><stop offset="0" stop-color="#f9f9f9"/><stop offset="1" stop-color="#fff"/></linearGradient></defs><g id="c"><path d="m.43,9.91c0,1.69.44,3.33,1.28,4.78l-1.36,4.96,5.07-1.33c1.4.76,2.98,1.16,4.57,1.16h0c5.27,0,9.57-4.29,9.57-9.57,0-2.56-.99-4.96-2.8-6.77C14.97,1.34,12.57.35,10.01.35,4.73.35.44,4.64.44,9.91" style="fill:url(#d); stroke-width:0px;"/><path d="m.09,9.91c0,1.75.46,3.45,1.32,4.95l-1.41,5.14,5.26-1.38c1.45.79,3.08,1.21,4.74,1.21h0c5.46,0,9.91-4.45,9.91-9.91,0-2.65-1.03-5.14-2.9-7.01-1.86-1.88-4.35-2.91-7-2.91C4.54,0,.1,4.45.09,9.91m3.13,4.7l-.2-.31c-.82-1.31-1.26-2.83-1.26-4.38C1.76,5.38,5.46,1.68,10,1.68c2.2,0,4.27.86,5.83,2.42s2.41,3.63,2.41,5.83c0,4.54-3.7,8.24-8.24,8.24h0c-1.48,0-2.93-.4-4.19-1.15l-.3-.18-3.12.82.83-3.04h0Z" style="fill:url(#e); stroke-width:0px;"/><path d="m7.49,5.77c-.19-.41-.38-.42-.56-.43h-.47c-.16,0-.43.06-.66.31s-.87.85-.87,2.07.89,2.4,1.01,2.56c.12.17,1.71,2.75,4.23,3.74,2.09.83,2.52.66,2.97.62s1.47-.6,1.67-1.18c.21-.58.21-1.07.14-1.18-.06-.1-.23-.17-.47-.29-.25-.12-1.47-.72-1.69-.81-.23-.08-.39-.12-.56.12-.17.25-.64.81-.78.97-.14.17-.29.19-.54.06-.25-.12-1.05-.39-1.99-1.23-.74-.66-1.23-1.47-1.38-1.72-.14-.25-.02-.38.11-.51.11-.11.25-.29.37-.43.12-.14.16-.25.25-.41.08-.17.04-.31-.02-.43s-.54-1.35-.76-1.84" style="fill:#fff; stroke-width:0px;"/></g></svg>