<?xml version="1.0" encoding="UTF-8"?><svg id="b" xmlns="http://www.w3.org/2000/svg" viewBox="0 0 20.01 14"><g id="c"><path d="m19.59,2.2c-.23-.86-.9-1.53-1.76-1.76-1.56-.44-7.82-.44-7.82-.44,0,0-6.26,0-7.83.4-.86.24-1.53.92-1.76,1.78-.42,1.57-.42,4.81-.42,4.81,0,0,0,3.26.41,4.81.23.86.9,1.53,1.76,1.76,1.58.43,7.82.44,7.82.44,0,0,6.26,0,7.83-.4.86-.23,1.53-.9,1.77-1.76.41-1.56.42-4.81.42-4.81,0,0,.02-3.26-.41-4.83h-.01Zm-11.59,7.8v-6l5.21,3-5.21,2.99h0Z" style="fill:red; stroke-width:0px;"/></g></svg>