<?xml version="1.0" encoding="UTF-8"?><svg id="a" xmlns="http://www.w3.org/2000/svg" xmlns:xlink="http://www.w3.org/1999/xlink" viewBox="0 0 24 24"><defs><linearGradient id="b" x1="-786.15" y1="323.32" x2="-786.15" y2="324.99" gradientTransform="translate(9044.88 3754.54) scale(11.49 -11.55)" gradientUnits="userSpaceOnUse"><stop offset="0" stop-color="#1faf38"/><stop offset="1" stop-color="#60d669"/></linearGradient><linearGradient id="c" x1="-788.63" y1="327.01" x2="-788.63" y2="328.68" gradientTransform="translate(9404.57 3933.19) scale(11.91 -11.96)" gradientUnits="userSpaceOnUse"><stop offset="0" stop-color="#f9f9f9"/><stop offset="1" stop-color="#fff"/></linearGradient></defs><path d="m2.48,11.91c0,1.69.44,3.33,1.28,4.78l-1.36,4.96,5.07-1.33c1.4.76,2.98,1.16,4.57,1.16h0c5.27,0,9.57-4.29,9.57-9.57,0-2.56-.99-4.96-2.8-6.77-1.79-1.8-4.19-2.79-6.75-2.79C6.78,2.35,2.49,6.64,2.49,11.91" style="fill:url(#b); stroke-width:0px;"/><path d="m2.14,11.91c0,1.75.46,3.45,1.32,4.95l-1.41,5.14,5.26-1.38c1.45.79,3.08,1.21,4.74,1.21h0c5.46,0,9.91-4.45,9.91-9.91,0-2.65-1.03-5.14-2.9-7.01-1.86-1.88-4.35-2.91-7-2.91-5.47,0-9.91,4.45-9.92,9.91m3.13,4.7l-.2-.31c-.82-1.31-1.26-2.83-1.26-4.38C3.81,7.38,7.51,3.68,12.05,3.68c2.2,0,4.27.86,5.83,2.42s2.41,3.63,2.41,5.83c0,4.54-3.7,8.24-8.24,8.24h0c-1.48,0-2.93-.4-4.19-1.15l-.3-.18-3.12.82.83-3.04h0Z" style="fill:url(#c); stroke-width:0px;"/><path d="m9.53,7.77c-.19-.41-.38-.42-.56-.43h-.47c-.16,0-.43.06-.66.31s-.87.85-.87,2.07.89,2.4,1.01,2.56c.12.17,1.71,2.75,4.23,3.74,2.09.83,2.52.66,2.97.62s1.47-.6,1.67-1.18c.21-.58.21-1.07.14-1.18-.06-.1-.23-.17-.47-.29-.25-.12-1.47-.72-1.69-.81-.23-.08-.39-.12-.56.12-.17.25-.64.81-.78.97-.14.17-.29.19-.54.06-.25-.12-1.05-.39-1.99-1.23-.74-.66-1.23-1.47-1.38-1.72-.14-.25-.02-.38.11-.51.11-.11.25-.29.37-.43.12-.14.16-.25.25-.41.08-.17.04-.31-.02-.43s-.54-1.35-.76-1.84" style="fill:#fff; stroke-width:0px;"/></svg>