<?xml version="1.0" encoding="UTF-8"?><svg id="a" xmlns="http://www.w3.org/2000/svg" xmlns:xlink="http://www.w3.org/1999/xlink" viewBox="0 0 24 24"><defs><radialGradient id="b" cx="-966.64" cy="353.69" fx="-966.64" fy="353.69" r="1.67" gradientTransform="translate(3919.68 -11470.76) rotate(-90) scale(11.89 -11.06)" gradientUnits="userSpaceOnUse"><stop offset="0" stop-color="#fd5"/><stop offset=".1" stop-color="#fd5"/><stop offset=".5" stop-color="#ff543e"/><stop offset="1" stop-color="#c837ab"/></radialGradient><radialGradient id="c" cx="-602.26" cy="459.53" fx="-602.26" fy="459.53" r="1.67" gradientTransform="translate(-9246.6 5120.77) rotate(78.68) scale(5.32 -21.91)" gradientUnits="userSpaceOnUse"><stop offset="0" stop-color="#3771c8"/><stop offset=".13" stop-color="#3771c8"/><stop offset="1" stop-color="#60f" stop-opacity="0"/></radialGradient></defs><path d="m6.69,2h10.62c2.59,0,4.69,2.1,4.69,4.69v10.62c0,2.59-2.1,4.69-4.69,4.69H6.69c-2.59,0-4.69-2.1-4.69-4.69V6.69c0-2.59,2.1-4.69,4.69-4.69Z" style="fill:url(#b); stroke-width:0px;"/><path d="m6.69,2h10.62c2.59,0,4.69,2.1,4.69,4.69v10.62c0,2.59-2.1,4.69-4.69,4.69H6.69c-2.59,0-4.69-2.1-4.69-4.69V6.69c0-2.59,2.1-4.69,4.69-4.69Z" style="fill:url(#c); stroke-width:0px;"/><path d="m12,4.19c-2.12,0-2.39,0-3.22.05-.83.04-1.4.17-1.9.36-.51.2-.95.47-1.38.9s-.7.87-.9,1.38c-.19.5-.33,1.06-.36,1.9-.04.83-.05,1.1-.05,3.22s0,2.39.05,3.22c.04.83.17,1.4.36,1.9.2.51.47.95.9,1.38s.87.7,1.38.9c.5.19,1.06.32,1.9.36.83.04,1.1.05,3.22.05s2.39,0,3.22-.05c.83-.04,1.4-.17,1.9-.36.51-.2.95-.47,1.38-.9s.7-.87.9-1.38c.19-.5.32-1.06.36-1.9.04-.83.05-1.1.05-3.22s0-2.39-.05-3.22c-.04-.83-.17-1.4-.36-1.9-.2-.51-.47-.95-.9-1.38s-.87-.7-1.38-.9c-.5-.19-1.07-.32-1.9-.36-.83-.04-1.1-.05-3.22-.05h0Zm-.7,1.41h.7c2.09,0,2.33,0,3.16.04.76.03,1.18.16,1.45.27.36.14.62.31.9.58.27.27.44.53.58.9.11.27.23.69.27,1.45.04.82.05,1.07.05,3.16s0,2.33-.05,3.16c-.03.76-.16,1.18-.27,1.45-.14.36-.31.62-.58.9-.27.27-.53.44-.9.58-.28.11-.69.23-1.45.27-.82.04-1.07.05-3.16.05s-2.33,0-3.16-.05c-.76-.04-1.18-.16-1.45-.27-.36-.14-.62-.31-.9-.58s-.44-.53-.58-.9c-.11-.28-.23-.69-.27-1.45-.04-.82-.04-1.07-.04-3.16s0-2.33.04-3.16c.03-.76.16-1.18.27-1.45.14-.36.31-.62.58-.9.27-.27.53-.44.9-.58.28-.11.69-.23,1.45-.27.72-.03,1-.04,2.46-.04h0Zm4.87,1.3c-.52,0-.94.42-.94.94s.42.94.94.94.94-.42.94-.94-.42-.94-.94-.94h0Zm-4.17,1.1c-2.22,0-4.01,1.8-4.01,4.01s1.8,4.01,4.01,4.01,4.01-1.8,4.01-4.01-1.8-4.01-4.01-4.01h0Zm0,1.41c1.44,0,2.6,1.17,2.6,2.6s-1.17,2.6-2.6,2.6-2.6-1.17-2.6-2.6,1.17-2.6,2.6-2.6" style="fill:#fff; stroke-width:0px;"/></svg>