<?xml version="1.0" encoding="UTF-8"?><svg id="b" xmlns="http://www.w3.org/2000/svg" viewBox="0 0 20 15.01"><g id="c"><path d="m4.55,15v-7.73l-2.4-2.19L0,3.87v9.77c0,.75.61,1.36,1.36,1.36h3.19Z" style="fill:#4285f4; stroke-width:0px;"/><path d="m15.45,15h3.18c.75,0,1.36-.61,1.36-1.36V3.87l-2.43,1.39-2.11,2.02v7.73h0Z" style="fill:#34a853; stroke-width:0px;"/><path d="m4.55,7.28l-.33-3.02.33-2.89,5.45,4.09L15.45,1.37l.36,2.73-.36,3.18-5.45,4.09s-5.45-4.09-5.45-4.09Z" style="fill:#ea4335; stroke-width:0px;"/><path d="m15.45,1.37v5.91l4.55-3.41v-1.82c0-1.69-1.92-2.65-3.27-1.64l-1.27.95h0Z" style="fill:#fbbc04; stroke-width:0px;"/><path d="m0,3.87l2.09,1.57,2.45,1.84V1.37l-1.27-.95C1.92-.6,0,.36,0,2.05v1.82Z" style="fill:#c5221f; stroke-width:0px;"/></g></svg>