<?xml version="1.0" encoding="UTF-8"?><svg id="a" xmlns="http://www.w3.org/2000/svg" viewBox="0 0 24 24"><g id="b"><path d="m16.27,9.22c1.29.92,2.87,1.47,4.58,1.47v-3.29c-.32,0-.65-.03-.96-.1v2.59c-1.71,0-3.29-.54-4.58-1.47v6.71c0,3.35-2.72,6.07-6.08,6.07-1.25,0-2.42-.38-3.38-1.03,1.1,1.13,2.64,1.83,4.35,1.83,3.36,0,6.08-2.72,6.08-6.07v-6.71s-.01,0,0,0Zm1.19-3.32c-.66-.72-1.09-1.65-1.19-2.68v-.42h-.91c.23,1.31,1.01,2.43,2.1,3.1m-9.49,11.7c-.37-.48-.57-1.07-.57-1.68,0-1.53,1.24-2.78,2.78-2.78.29,0,.57.04.84.13v-3.36c-.32-.04-.64-.06-.96-.06v2.61c-.27-.09-.56-.13-.84-.13-1.54,0-2.78,1.24-2.78,2.78,0,1.09.62,2.02,1.53,2.48" style="fill:#ff004f; stroke-width:0px;"/><path d="m15.3,8.42c1.29.92,2.87,1.47,4.58,1.47v-2.59c-.95-.2-1.8-.7-2.43-1.39-1.09-.68-1.87-1.8-2.1-3.1h-2.4v13.13c0,1.53-1.25,2.77-2.78,2.77-.9,0-1.7-.43-2.21-1.1-.91-.46-1.53-1.4-1.53-2.48,0-1.53,1.24-2.78,2.78-2.78.29,0,.58.05.84.13v-2.61c-3.3.07-5.95,2.76-5.95,6.07,0,1.65.66,3.15,1.73,4.25.97.65,2.13,1.03,3.38,1.03,3.36,0,6.08-2.72,6.08-6.07v-6.73h0Z" style="stroke-width:0px;"/><path d="m19.89,7.3v-.7c-.86,0-1.7-.24-2.43-.69.65.71,1.5,1.19,2.43,1.39m-4.53-4.5c-.02-.13-.04-.25-.05-.38v-.42h-3.31v13.13c0,1.53-1.25,2.77-2.78,2.77-.43,0-.86-.1-1.25-.3.51.67,1.31,1.1,2.21,1.1,1.53,0,2.77-1.24,2.78-2.77V2.8s2.4,0,2.4,0Zm-5.29,7.05v-.74c-.28-.04-.55-.06-.83-.06-3.36,0-6.08,2.72-6.08,6.07,0,2.1,1.07,3.96,2.69,5.05-1.07-1.1-1.73-2.59-1.73-4.25,0-3.31,2.65-6,5.95-6.07" style="fill:#00f2ea; stroke-width:0px;"/></g></svg>