<?xml version="1.0" encoding="UTF-8"?><svg id="b" xmlns="http://www.w3.org/2000/svg" viewBox="0 0 17.22 19.99"><g id="c"><path d="m13.39,9.27c-.09-.04-.17-.08-.26-.12-.15-2.85-1.71-4.47-4.32-4.5h-.04c-1.56,0-2.86.67-3.66,1.88l1.44.99c.6-.91,1.53-1.1,2.22-1.1h.02c.86,0,1.51.26,1.93.74.31.35.51.85.61,1.46-.82-.13-1.65-.17-2.47-.12-2.48.14-4.07,1.59-3.96,3.6.05,1.01.58,1.93,1.43,2.47.79.5,1.72.73,2.66.67,1.3-.07,2.32-.56,3.03-1.47.54-.69.88-1.58,1.03-2.7.59.33,1.05.84,1.33,1.46.43,1,.46,2.65-.89,4-1.18,1.18-2.6,1.69-4.74,1.7-2.38-.02-4.17-.78-5.34-2.26-1.09-1.4-1.66-3.41-1.68-5.98.02-2.57.59-4.58,1.69-5.97,1.17-1.49,2.97-2.25,5.34-2.26,2.39.02,4.22.79,5.43,2.28.6.73,1.04,1.65,1.34,2.73l1.69-.45c-.32-1.24-.89-2.4-1.69-3.4C13.96,1,11.69.02,8.76,0h-.01C5.83.02,3.57,1,2.06,2.92.72,4.63.02,7.01,0,9.99h0c.02,2.99.72,5.37,2.06,7.08,1.51,1.92,3.76,2.9,6.69,2.92h.01c2.6-.02,4.43-.7,5.94-2.21,1.98-1.97,1.91-4.45,1.26-5.97-.47-1.09-1.36-1.97-2.58-2.55m-4.49,4.22c-1.09.06-2.22-.43-2.27-1.47-.04-.78.55-1.64,2.34-1.74.2-.01.41-.02.6-.02.61,0,1.22.06,1.81.18-.21,2.57-1.41,2.99-2.48,3.05" style="fill:#1d1d1b; stroke-width:0px;"/></g></svg>