<?xml version="1.0" encoding="UTF-8"?><svg id="a" xmlns="http://www.w3.org/2000/svg" viewBox="0 0 24 24"><g id="b"><path d="m6.55,19.5v-7.73l-2.4-2.19-2.15-1.21v9.77c0,.75.61,1.36,1.36,1.36h3.19Z" style="fill:#4285f4; stroke-width:0px;"/><path d="m17.45,19.5h3.18c.75,0,1.36-.61,1.36-1.36v-9.77l-2.43,1.39-2.11,2.02v7.73h0Z" style="fill:#34a853; stroke-width:0px;"/><path d="m6.55,11.78l-.33-3.02.33-2.89,5.45,4.09,5.45-4.09.36,2.73-.36,3.18-5.45,4.09s-5.45-4.09-5.45-4.09Z" style="fill:#ea4335; stroke-width:0px;"/><path d="m17.45,5.87v5.91l4.55-3.41v-1.82c0-1.69-1.92-2.65-3.27-1.64l-1.27.95h0Z" style="fill:#fbbc04; stroke-width:0px;"/><path d="m2,8.37l2.09,1.57,2.45,1.84v-5.91l-1.27-.95c-1.35-1.02-3.27-.06-3.27,1.63v1.82Z" style="fill:#c5221f; stroke-width:0px;"/></g></svg>