<?xml version="1.0" encoding="UTF-8" standalone="no"?>
<!-- Created with Inkscape (http://www.inkscape.org/) -->

<svg width="24" height="24" viewBox="0 0 24 24" version="1.1" id="svg1" xmlns="http://www.w3.org/2000/svg"
   xmlns:svg="http://www.w3.org/2000/svg">
   <defs id="defs1" />
   <g id="layer1" transform="translate(-902)">
      <path
         d="m 908.4926,6.1046571 c -0.1793,8.71e-5 -0.35747,0.028427 -0.52794,0.083991 -0.16985,0.055106 -0.33001,0.1365351 -0.47461,0.2413054 -0.14535,0.1054962 -0.27313,0.2332806 -0.37863,0.3786244 -0.10477,0.1446018 -0.1862,0.3047599 -0.2413,0.4746123 -0.0555,0.1704731 -0.0839,0.3486431 -0.084,0.5279405 v 14.4756943 0.008 c 9e-5,0.179297 0.0284,0.357467 0.084,0.527939 0.0551,0.169853 0.13653,0.330011 0.2413,0.474614 0.10478,0.144681 0.23165,0.272002 0.37596,0.37729 l 0.003,0.0013 c 0.004,0.0022 0.009,0.0044 0.0133,0.0067 0.1406,0.100641 0.29569,0.179313 0.45995,0.233307 0.17004,0.05545 0.34775,0.08379 0.5266,0.08399 h 0.0107 5.49138 0.016 5.49137 0.0107 c 0.003,7e-6 0.006,7e-6 0.008,0 0.1729,-0.0012 0.34462,-0.02857 0.50928,-0.08132 0.003,-8.94e-4 0.006,-0.0018 0.009,-0.0027 0.002,-8.94e-4 0.003,-0.0018 0.006,-0.0027 0.16729,-0.0545 0.32514,-0.134555 0.46796,-0.237306 l 0.003,-0.0013 c 0.14429,-0.10531 0.27116,-0.232625 0.37596,-0.37729 0.10477,-0.144604 0.1862,-0.304759 0.2413,-0.474614 0.0555,-0.170474 0.0839,-0.348641 0.084,-0.52794 V 22.269484 7.8111214 c 10e-6,-0.059672 -0.003,-0.119302 -0.009,-0.1786466 -0.006,-0.059105 -0.0156,-0.1178476 -0.028,-0.1759803 -0.0125,-0.058552 -0.028,-0.1164007 -0.0467,-0.1733137 -0.0184,-0.056628 -0.0398,-0.1122532 -0.064,-0.1666481 -0.0239,-0.05424 -0.0506,-0.1071902 -0.08,-0.1586479 -0.0298,-0.051435 -0.0623,-0.101274 -0.0973,-0.1493163 -0.0354,-0.048172 -0.0732,-0.094449 -0.11332,-0.1386514 -0.04,-0.044407 -0.0823,-0.086681 -0.12666,-0.1266519 -0.0442,-0.040172 -0.0905,-0.078001 -0.13865,-0.113321 -0.048,-0.035015 -0.0979,-0.067508 -0.14931,-0.097322 -0.0515,-0.0294 -0.10442,-0.056102 -0.15865,-0.079991 -0.0544,-0.024226 -0.11002,-0.045586 -0.16665,-0.063993 -0.0569,-0.018588 -0.11476,-0.03416 -0.17332,-0.046664 -0.0582,-0.012387 -0.11687,-0.021734 -0.17598,-0.027992 -0.0593,-0.00621 -0.11897,-0.00934 -0.17864,-0.00933 -0.1793,8.77e-5 -0.35747,0.028428 -0.52794,0.083991 -0.16986,0.055106 -0.33001,0.136534 -0.47461,0.2413055 -0.14535,0.1054978 -0.27313,0.2332783 -0.37863,0.3786243 -0.10477,0.144604 -0.1862,0.3047577 -0.2413,0.4746129 -0.0556,0.1704742 -0.0839,0.3486403 -0.084,0.5279405 V 20.589642 h -2.09461 V 7.8111303 c 10e-6,-0.059672 -0.003,-0.119302 -0.009,-0.1786465 -0.006,-0.059106 -0.0157,-0.1178483 -0.028,-0.1759804 -0.0125,-0.058552 -0.0281,-0.1164012 -0.0467,-0.1733136 -0.0184,-0.056628 -0.0398,-0.1122527 -0.064,-0.1666476 -0.0239,-0.05424 -0.0506,-0.1071913 -0.08,-0.1586485 -0.0298,-0.051435 -0.0623,-0.1012745 -0.0973,-0.1493162 -0.0354,-0.048172 -0.0732,-0.09445 -0.11333,-0.1386509 -0.04,-0.044401 -0.0822,-0.086682 -0.12665,-0.1266525 -0.0442,-0.040172 -0.0905,-0.078 -0.13865,-0.113321 -0.048,-0.035015 -0.0979,-0.067508 -0.14932,-0.097322 -0.0515,-0.0294 -0.10441,-0.056102 -0.15864,-0.079991 -0.0544,-0.024226 -0.11002,-0.045586 -0.16665,-0.063993 -0.0569,-0.018588 -0.11476,-0.034154 -0.17331,-0.046664 -0.0582,-0.012387 -0.11688,-0.021734 -0.17598,-0.027992 -0.0593,-0.00621 -0.11898,-0.00934 -0.17865,-0.00933 -0.17929,8.71e-5 -0.35746,0.028427 -0.52794,0.08399 -0.16986,0.055106 -0.33001,0.1365345 -0.47462,0.241306 -0.14533,0.1054967 -0.27312,0.2332795 -0.37862,0.3786238 -0.10477,0.1446035 -0.18619,0.3047588 -0.2413,0.4746128 -0.0556,0.1704732 -0.0839,0.348642 -0.084,0.5279406 V 20.589688 h -2.09443 V 7.8111303 c 2e-5,-0.059672 -0.003,-0.1193025 -0.009,-0.1786465 -0.006,-0.059106 -0.0156,-0.1178483 -0.028,-0.1759804 -0.0125,-0.058546 -0.0281,-0.1164012 -0.0467,-0.1733136 -0.0184,-0.056628 -0.0398,-0.1122539 -0.0639,-0.1666476 -0.0239,-0.05424 -0.0506,-0.1071913 -0.08,-0.1586485 -0.0298,-0.051435 -0.0623,-0.1012745 -0.0973,-0.1493162 -0.0353,-0.048172 -0.0732,-0.09445 -0.11333,-0.1386509 -0.0399,-0.044401 -0.0822,-0.086682 -0.12665,-0.1266525 -0.0442,-0.040172 -0.0905,-0.078 -0.13865,-0.113321 -0.048,-0.035015 -0.0979,-0.067508 -0.14931,-0.097322 -0.0515,-0.0294 -0.10442,-0.056102 -0.15865,-0.079991 -0.0544,-0.024226 -0.11002,-0.045586 -0.16665,-0.063993 -0.0569,-0.018588 -0.11476,-0.034154 -0.17332,-0.046664 -0.0582,-0.012387 -0.11687,-0.021734 -0.17598,-0.027992 -0.0593,-0.00621 -0.11897,-0.00934 -0.17864,-0.00933 z"
         style="fill:#333333;stroke-width:0.682589;stroke-linecap:round;stroke-linejoin:round;paint-order:stroke markers fill"
         id="path54" />
      <path
         d="M 913.31206,1.4660487e-5 C 913.16303,2.1568642e-4 913.01467,0.01993679 912.87077,0.0586744 c -0.14413,0.03819827 -0.28262,0.09512169 -0.41195,0.16931417 -0.12915,0.0748157 -0.24793,0.16625275 -0.35329,0.2719692 -0.10572,0.10536362 -0.19716,0.22414201 -0.27198,0.35329329 -0.0742,0.12933114 -0.13111,0.26782874 -0.16932,0.41195344 -0.0387,0.1439018 -0.0584,0.2922588 -0.0586,0.4412834 h -4.41017 c -0.14902,2.009e-4 -0.29738,0.019922 -0.44128,0.05866 -0.14412,0.038198 -0.28263,0.095122 -0.41195,0.1693141 -0.12915,0.074816 -0.24793,0.166253 -0.3533,0.2719692 -0.10571,0.1053634 -0.19715,0.2241423 -0.27197,0.3532934 -0.0742,0.1293308 -0.13111,0.267829 -0.16931,0.4119534 -0.0388,0.1439015 -0.0585,0.2922588 -0.0586,0.4412831 2e-4,0.1490244 0.02,0.2973825 0.0586,0.4412836 0.0382,0.1441241 0.0951,0.2826225 0.16931,0.4119535 0.0748,0.129151 0.16626,0.2479301 0.27197,0.3532927 0.10537,0.1057168 0.22415,0.197154 0.3533,0.2719694 0.12932,0.074192 0.26783,0.1311155 0.41195,0.1693144 0.1439,0.038736 0.29226,0.058457 0.44128,0.058662 h 13.60913 c 0.14902,-2.006e-4 0.29738,-0.019924 0.44128,-0.058662 0.14413,-0.038199 0.28263,-0.095122 0.41195,-0.1693144 0.12916,-0.074815 0.24793,-0.1662526 0.3533,-0.2719694 0.10571,-0.1053626 0.19715,-0.2241417 0.27197,-0.3532927 0.0742,-0.129331 0.13111,-0.2678294 0.16931,-0.4119535 0.0388,-0.1439011 0.0585,-0.2922592 0.0586,-0.4412836 -1.9e-4,-0.1490243 -0.0199,-0.2973816 -0.0586,-0.4412831 -0.0382,-0.1441244 -0.0951,-0.2826226 -0.16931,-0.4119534 -0.0748,-0.1291511 -0.16626,-0.24793 -0.27197,-0.3532934 C 921.90575,2.100715 921.78698,2.0092776 921.65782,1.934462 921.5285,1.86027 921.39,1.8033464 921.24587,1.7651479 c -0.1439,-0.038737 -0.29226,-0.058459 -0.44128,-0.05866 h -4.41017 c 2.1e-4,-0.052513 -0.002,-0.1050077 -0.007,-0.1573156 -0.006,-0.052316 -0.0127,-0.1043652 -0.0227,-0.1559823 -0.01,-0.051631 -0.0216,-0.102792 -0.036,-0.153316 -0.0141,-0.050503 -0.0306,-0.1003288 -0.0493,-0.1493164 -0.019,-0.049406 -0.0404,-0.0978972 -0.064,-0.14531689 -0.0236,-0.0469388 -0.0494,-0.0927604 -0.0773,-0.13731781 -0.0278,-0.0444548 -0.0575,-0.0876072 -0.0893,-0.12931867 -0.0315,-0.0419545 -0.0648,-0.0824374 -0.1,-0.1213196 -0.0356,-0.0390419 -0.0729,-0.0764116 -0.11198,-0.11198731 -0.0389,-0.0351762 -0.0794,-0.0685407 -0.12133,-0.0999887 -0.0417,-0.0317446 -0.0849,-0.0615504 -0.12931,-0.0893232 -0.0446,-0.0278754 -0.0904,-0.0536781 -0.13732,-0.0773245 -0.0474,-0.0235739 -0.0959,-0.044928 -0.14532,-0.0639928 -0.049,-0.01872815 -0.0988,-0.03518792 -0.14932,-0.0493279 -0.0505,-0.01435117 -0.10168,-0.026363 -0.15331,-0.03599582 -0.0516,-0.0099535 -0.10367,-0.01751574 -0.15599,-0.02266374 -0.0523,-0.00464293 -0.1048,-0.006865503 -0.15731,-0.0066688348 z"
         style="fill:#333333;stroke-width:0.682589;stroke-linecap:round;stroke-linejoin:round;paint-order:stroke markers fill"
         id="path55" />
   </g>
</svg>