<?xml version="1.0" encoding="UTF-8" standalone="no"?>

<svg width="24" height="24" viewBox="0 0 24 24" version="1.1" id="svg1" xmlns="http://www.w3.org/2000/svg"
   xmlns:svg="http://www.w3.org/2000/svg">
   <defs id="defs1" />
   <g id="layer1" transform="translate(-334)">
      <g id="g24">
         <g id="g47" transform="matrix(1.6030669,0,0,1.6030669,-236.40223,-14.473606)">
            <g id="path14">
               <path style="color:#000000;fill:#ffffff;stroke-linecap:round;stroke-linejoin:round;-inkscape-stroke:none"
                  d="M 379.53039,11.530384 404.4696,36.469616" id="path44" />
               <path style="color:#000000;fill:#ffffff;stroke-linecap:round;stroke-linejoin:round;-inkscape-stroke:none"
                  d="m 377.76172,9.7617188 a 2.5,2.5 0 0 0 0,3.5371092 l 24.93945,24.939453 a 2.5,2.5 0 0 0 3.53711,0 2.5,2.5 0 0 0 0,-3.537109 L 381.29883,9.7617188 a 2.5,2.5 0 0 0 -3.53711,0 z"
                  id="path45" />
            </g>
            <g id="path19">
               <path style="color:#000000;fill:#ffffff;stroke-linecap:round;stroke-linejoin:round;-inkscape-stroke:none"
                  d="m 404.4696,11.530384 -7.57677,7.576789" id="path42" />
               <path style="color:#000000;fill:#ffffff;stroke-linecap:round;stroke-linejoin:round;-inkscape-stroke:none"
                  d="M 402.70117,9.7617188 395.125,17.339844 a 2.5,2.5 0 0 0 0,3.535156 2.5,2.5 0 0 0 3.53516,0 l 7.57812,-7.576172 a 2.5,2.5 0 0 0 0,-3.5371092 2.5,2.5 0 0 0 -3.53711,0 z"
                  id="path43" />
            </g>
            <g id="path24">
               <path style="color:#000000;fill:#ffffff;stroke-linecap:round;stroke-linejoin:round;-inkscape-stroke:none"
                  d="m 387.10717,28.892826 -7.57678,7.57679" id="path46" />
               <path style="color:#000000;fill:#ffffff;stroke-linecap:round;stroke-linejoin:round;-inkscape-stroke:none"
                  d="M 387.10742,26.392578 A 2.5,2.5 0 0 0 385.33984,27.125 l -7.57812,7.576172 a 2.5,2.5 0 0 0 0,3.537109 2.5,2.5 0 0 0 3.53711,0 l 7.57617,-7.578125 a 2.5,2.5 0 0 0 0,-3.535156 2.5,2.5 0 0 0 -1.76758,-0.732422 z"
                  id="path47" />
            </g>
         </g>
         <g id="g54" transform="matrix(0.80153322,0,0,0.80153322,31.798981,-7.2367979)">
            <g id="g49">
               <path style="color:#000000;fill:#ffffff;stroke-linecap:round;stroke-linejoin:round;-inkscape-stroke:none"
                  d="M 379.53039,11.530384 404.4696,36.469616" id="path48" />
               <path style="color:#000000;fill:#ffffff;stroke-linecap:round;stroke-linejoin:round;-inkscape-stroke:none"
                  d="m 377.76172,9.7617188 a 2.5,2.5 0 0 0 0,3.5371092 l 24.93945,24.939453 a 2.5,2.5 0 0 0 3.53711,0 2.5,2.5 0 0 0 0,-3.537109 L 381.29883,9.7617188 a 2.5,2.5 0 0 0 -3.53711,0 z"
                  id="path49" />
            </g>
            <g id="g51">
               <path style="color:#000000;fill:#ffffff;stroke-linecap:round;stroke-linejoin:round;-inkscape-stroke:none"
                  d="m 404.4696,11.530384 -7.57677,7.576789" id="path50" />
               <path style="color:#000000;fill:#ffffff;stroke-linecap:round;stroke-linejoin:round;-inkscape-stroke:none"
                  d="M 402.70117,9.7617188 395.125,17.339844 a 2.5,2.5 0 0 0 0,3.535156 2.5,2.5 0 0 0 3.53516,0 l 7.57812,-7.576172 a 2.5,2.5 0 0 0 0,-3.5371092 2.5,2.5 0 0 0 -3.53711,0 z"
                  id="path51" />
            </g>
            <g id="g53">
               <path style="color:#000000;fill:#ffffff;stroke-linecap:round;stroke-linejoin:round;-inkscape-stroke:none"
                  d="m 387.10717,28.892826 -7.57678,7.57679" id="path52" />
               <path style="color:#000000;fill:#ffffff;stroke-linecap:round;stroke-linejoin:round;-inkscape-stroke:none"
                  d="M 387.10742,26.392578 A 2.5,2.5 0 0 0 385.33984,27.125 l -7.57812,7.576172 a 2.5,2.5 0 0 0 0,3.537109 2.5,2.5 0 0 0 3.53711,0 l 7.57617,-7.578125 a 2.5,2.5 0 0 0 0,-3.535156 2.5,2.5 0 0 0 -1.76758,-0.732422 z"
                  id="path53" />
            </g>
         </g>
      </g>
   </g>
</svg>