<?xml version="1.0" encoding="UTF-8" standalone="no"?>

<svg width="24" height="24" viewBox="0 0 24 24" version="1.1" id="svg1" inkscape:version="1.3 (0e150ed6c4, 2023-07-21)"
   sodipodi:docname="menu(Proyect).svg" xmlns:inkscape="http://www.inkscape.org/namespaces/inkscape"
   xmlns:sodipodi="http://sodipodi.sourceforge.net/DTD/sodipodi-0.dtd" xmlns="http://www.w3.org/2000/svg"
   xmlns:svg="http://www.w3.org/2000/svg">
   <sodipodi:namedview id="namedview1" pagecolor="#ffffff" bordercolor="#000000" borderopacity="0.25"
      inkscape:showpageshadow="2" inkscape:pageopacity="0.0" inkscape:pagecheckerboard="0" inkscape:deskcolor="#d1d1d1"
      inkscape:document-units="px" showguides="false" inkscape:zoom="2.56" inkscape:cx="1245.3125"
      inkscape:cy="65.039063" inkscape:window-width="1366" inkscape:window-height="715" inkscape:window-x="0"
      inkscape:window-y="27" inkscape:window-maximized="1" inkscape:current-layer="layer1">
      <inkscape:page x="0" y="0" width="24" height="24" id="page99" margin="0" bleed="0" />
   </sodipodi:namedview>
   <defs id="defs1" />
   <g inkscape:label="Layer 1" inkscape:groupmode="layer" id="layer1" transform="translate(-1282)">
      <g id="g105">
         <path
            style="color:#000000;fill:rgba(237, 237, 237, 1);stroke-linecap:round;stroke-linejoin:round;-inkscape-stroke:none;paint-order:stroke markers fill"
            d="m 1292.209,8.3710938 a 2.0531304,2.0531304 0 0 0 -2.0527,2.0527342 v 3.152344 a 2.0531304,2.0531304 0 0 0 2.0527,2.052734 h 3.582 a 2.0531304,2.0531304 0 0 0 2.0528,-2.052734 v -3.152344 a 2.0531304,2.0531304 0 0 0 -2.0528,-2.0527342 z"
            id="rect104" />
         <g id="g104" transform="translate(0,0.28009155)">
            <path
               style="color:#000000;fill:rgba(237, 237, 237, 1);stroke-width:1.08377;stroke-linecap:round;stroke-linejoin:round;-inkscape-stroke:none;paint-order:stroke markers fill"
               d="M 1283.6257,2.7798609 A 1.6258181,1.6258181 0 0 0 1282,4.4224503 l 0.042,4.2906301 a 1.6256556,1.6256556 0 0 0 1.6425,1.6087216 1.6256556,1.6256556 0 0 0 1.6088,-1.6404727 l -0.026,-2.6501573 h 2.6714 a 1.6256556,1.6256556 0 0 0 1.6256,-1.6256556 1.6256556,1.6256556 0 0 0 -1.6256,-1.6256555 z"
               id="path99" />
            <path
               style="color:#000000;fill:rgba(237, 237, 237, 1);stroke-width:1.08377;stroke-linecap:round;stroke-linejoin:round;-inkscape-stroke:none;paint-order:stroke markers fill"
               d="m 1300.0601,2.7798609 a 1.6256556,1.6256556 0 0 0 -1.6257,1.6256555 1.6256556,1.6256556 0 0 0 1.6257,1.6256556 h 2.6712 l -0.025,2.6501573 a 1.6256556,1.6256556 0 0 0 1.6108,1.6404727 1.6256556,1.6256556 0 0 0 1.6405,-1.6087216 L 1306,4.4224503 a 1.6258181,1.6258181 0 0 0 -1.6257,-1.6425894 z"
               id="path100" />
            <path
               style="color:#000000;fill:rgba(237, 237, 237, 1);stroke-width:1.08377;stroke-linecap:round;stroke-linejoin:round;-inkscape-stroke:none;paint-order:stroke markers fill"
               d="m 1283.6849,13.115898 a 1.6256556,1.6256556 0 0 0 -1.6425,1.610838 L 1282,19.017367 a 1.6258181,1.6258181 0 0 0 1.6257,1.642589 h 4.3139 a 1.6256556,1.6256556 0 0 0 1.6257,-1.625656 1.6256556,1.6256556 0 0 0 -1.6257,-1.625655 h -2.6714 l 0.026,-2.650158 a 1.6256556,1.6256556 0 0 0 -1.6087,-1.642589 z"
               id="path101" />
            <path
               style="color:#000000;fill:rgba(237, 237, 237, 1);stroke-width:1.08377;stroke-linecap:round;stroke-linejoin:round;-inkscape-stroke:none;paint-order:stroke markers fill"
               d="m 1304.3168,13.115898 a 1.6256556,1.6256556 0 0 0 -1.6108,1.642589 l 0.025,2.650158 h -2.6713 a 1.6256556,1.6256556 0 0 0 -1.6256,1.625655 1.6256556,1.6256556 0 0 0 1.6256,1.625656 h 4.3139 a 1.6258181,1.6258181 0 0 0 1.6256,-1.642589 l -0.042,-4.290631 a 1.6256556,1.6256556 0 0 0 -1.6405,-1.610838 z"
               id="path102" />
         </g>
      </g>
   </g>
</svg>