<svg width="39" height="35" viewBox="0 0 39 35" fill="none" xmlns="http://www.w3.org/2000/svg">
<path d="M0.469438 34.162C1.18379 34.6426 2.07407 34.8981 3.03703 34.8981C4.59768 34.8981 5.56666 34.1236 5.56666 32.8764V32.8579C5.56666 31.6778 4.62962 31.2319 3.22268 30.9264C2.35046 30.7282 2.04073 30.5916 2.04073 30.218V30.1995C2.04073 29.968 2.23194 29.7018 2.76944 29.7018C3.24444 29.7018 3.7574 29.8463 4.2537 30.1185C4.33946 30.1664 4.43988 30.181 4.53572 30.1594C4.63156 30.1379 4.7161 30.0818 4.77314 30.0018L5.12962 29.5018C5.16159 29.457 5.18386 29.4061 5.19502 29.3522C5.20618 29.2983 5.20598 29.2427 5.19444 29.1889C5.18334 29.1353 5.16112 29.0847 5.12922 29.0403C5.09732 28.9959 5.05645 28.9586 5.00925 28.931C4.39073 28.5606 3.67314 28.3792 2.8162 28.3792C1.36944 28.3792 0.397216 29.1768 0.397216 30.3643V30.3829C0.397216 31.6856 1.47175 32.0366 2.7699 32.3329C3.6537 32.5375 3.92314 32.7009 3.92314 33.0319V33.05C3.92314 33.2083 3.84305 33.5759 3.10231 33.5759C2.46309 33.5727 1.83856 33.3839 1.30462 33.0324C1.22301 32.9805 1.12533 32.9599 1.02972 32.9746C0.934108 32.9892 0.847055 33.0381 0.784716 33.112L0.39305 33.5796C0.356936 33.6228 0.330284 33.6731 0.314814 33.7273C0.299344 33.7814 0.295399 33.8382 0.303235 33.894C0.310398 33.9479 0.328916 33.9996 0.357567 34.0458C0.386217 34.092 0.424348 34.1316 0.469438 34.162Z" fill="white"/>
<path d="M9.21802 28.4898C8.89006 28.4898 8.57553 28.6201 8.34363 28.852C8.11173 29.0839 7.98145 29.3984 7.98145 29.7264V34.3889C7.98145 34.4412 7.99176 34.493 8.0118 34.5414C8.03183 34.5897 8.0612 34.6336 8.09822 34.6706C8.13524 34.7076 8.17919 34.7369 8.22755 34.7569C8.27591 34.7768 8.32773 34.7871 8.38006 34.787H9.21802C9.32366 34.787 9.42498 34.7451 9.49972 34.6704C9.57446 34.5958 9.61651 34.4945 9.61663 34.3889V28.8884C9.61651 28.7827 9.57447 28.6814 9.49974 28.6067C9.42502 28.532 9.3237 28.4899 9.21802 28.4898Z" fill="white"/>
<path d="M17.6556 29.0185C17.0158 28.5713 16.3079 28.363 15.4287 28.363C13.4917 28.363 12.0315 29.7718 12.0315 31.6403V31.6588C12.0315 33.5472 13.4755 34.9176 15.4653 34.9176C16.4111 34.9176 17.2449 34.637 18.0116 34.0593C18.0498 34.0303 18.0808 33.9929 18.1021 33.9499C18.1234 33.9069 18.1344 33.8596 18.1343 33.8116V31.8208C18.1343 31.7472 18.105 31.6765 18.0529 31.6244C18.0008 31.5723 17.9302 31.5431 17.8565 31.5431C17.5373 31.5431 17.2311 31.6699 17.0053 31.8956C16.7796 32.1214 16.6528 32.4275 16.6528 32.7468V33.2315L16.6158 33.256C16.3269 33.4449 15.9736 33.537 15.5366 33.537C14.4718 33.537 13.7005 32.75 13.7005 31.6639V31.6454C13.7005 30.6056 14.4625 29.7908 15.4352 29.7908C15.9068 29.7849 16.3684 29.9268 16.7551 30.1968C16.8193 30.2406 16.8975 30.2589 16.9745 30.2483C17.0515 30.2377 17.1218 30.1989 17.1718 30.1394L17.7264 29.4815C17.7581 29.4435 17.7802 29.3984 17.7909 29.3501C17.8016 29.3018 17.8006 29.2516 17.788 29.2037C17.7673 29.1282 17.7203 29.0625 17.6556 29.0185Z" fill="white"/>
<path d="M27.2528 29.0083C27.2526 28.8708 27.198 28.739 27.1007 28.6418C27.0035 28.5446 26.8717 28.4899 26.7342 28.4898H25.7778C25.6892 28.4895 25.602 28.512 25.5247 28.5552C25.4475 28.5985 25.3826 28.6609 25.3366 28.7366L23.9014 31.0662L22.4662 28.7366C22.4201 28.6609 22.3553 28.5985 22.278 28.5552C22.2007 28.512 22.1135 28.4895 22.025 28.4898H21.069C20.9316 28.4901 20.7999 28.5448 20.7027 28.642C20.6056 28.7392 20.551 28.8709 20.5509 29.0083V34.3889C20.551 34.4944 20.593 34.5956 20.6677 34.6703C20.7423 34.7449 20.8435 34.7869 20.9491 34.787H21.7412C21.8467 34.7869 21.9479 34.7449 22.0226 34.6703C22.0972 34.5956 22.1392 34.4944 22.1393 34.3889V30.9014L23.5426 33.031C23.5787 33.0869 23.6284 33.1327 23.687 33.1643C23.7456 33.1959 23.8112 33.2121 23.8778 33.2116C23.9442 33.2122 24.0096 33.196 24.0681 33.1646C24.1266 33.1332 24.1763 33.0876 24.2125 33.0319L25.6389 30.8843V34.3889C25.639 34.4944 25.681 34.5956 25.7556 34.6703C25.8303 34.7449 25.9315 34.7869 26.037 34.787H26.8569C26.9625 34.7869 27.0637 34.7449 27.1383 34.6703C27.213 34.5956 27.2549 34.4944 27.2551 34.3889L27.2528 29.0083Z" fill="white"/>
<path d="M31.3509 33.6324H33.9542L34.3245 34.5384C34.3543 34.6121 34.4056 34.6751 34.4716 34.7192C34.5377 34.7634 34.6155 34.7867 34.6949 34.7861H35.5667C35.6327 34.7863 35.6977 34.77 35.7559 34.7388C35.8141 34.7076 35.8636 34.6624 35.8999 34.6073C35.9363 34.5522 35.9584 34.4889 35.9642 34.4231C35.9701 34.3574 35.9594 34.2912 35.9333 34.2306L33.6185 28.7583C33.5785 28.6645 33.5116 28.5845 33.4263 28.5286C33.3409 28.4726 33.2409 28.4432 33.1389 28.444H32.213C32.111 28.4438 32.0112 28.4737 31.9262 28.5301C31.8412 28.5864 31.7747 28.6666 31.7352 28.7606L29.4204 34.2329C29.3943 34.2935 29.3837 34.3597 29.3895 34.4255C29.3953 34.4912 29.4174 34.5545 29.4538 34.6096C29.4902 34.6647 29.5397 34.7099 29.5978 34.7411C29.656 34.7723 29.721 34.7886 29.787 34.7884H30.6204C30.7002 34.7889 30.7782 34.7652 30.8443 34.7205C30.9104 34.6758 30.9614 34.6122 30.9907 34.538L31.3509 33.6324ZM32.6787 29.9389L33.6046 32.4037H31.7181L32.6787 29.9389Z" fill="white"/>
<path d="M19.3944 15.037L22.7458 13.3352L25.4537 14.4222V11.2254L26.4175 11.1597V16.3333L22.7361 14.8111L18.0972 17.3754V11.8426L19.3935 11.7171L19.3944 15.037ZM30.6953 10.0227V21.0092C30.6952 21.2225 30.617 21.4283 30.4754 21.5878C30.3337 21.7472 30.1386 21.8493 29.9268 21.8745L28.9722 21.9879C28.7284 22.017 28.4812 21.9839 28.2537 21.8916L22.7444 19.9194L16.7847 23.5264C16.6298 23.6195 16.4577 23.6801 16.2787 23.7046L14.6833 23.9213C14.1994 23.9868 13.7068 23.9336 13.2481 23.7662L6.24949 21.2074C5.96015 21.1017 5.71027 20.9097 5.53372 20.6573C5.35717 20.4049 5.26247 20.1043 5.26245 19.7963V9.34905C5.26248 8.84644 5.44567 8.36107 5.77773 7.98377L7.29995 6.25322V3.52174C7.29995 3.30646 7.43282 3.12729 7.61106 3.08146C7.6395 3.07408 7.66873 3.0702 7.6981 3.06989L8.88514 2.87637C8.97034 2.86527 9.05616 2.85971 9.14208 2.8597L10.9939 2.89998L12.9935 1.30739C13.2875 1.07348 13.6498 0.941822 14.0254 0.932385L22.0347 0.732848C22.3133 0.725833 22.59 0.77946 22.8458 0.890017C23.1017 1.00057 23.3304 1.16542 23.5162 1.37313L30.2777 8.9259C30.5469 9.22705 30.6956 9.61689 30.6953 10.0208V10.0227ZM28.8981 10.4935L22.4907 3.8009L14.8078 11.268V21.7611L22.6111 17.3685L28.8981 19.7389V10.4935Z" fill="white"/>
<path d="M36.57 27.6518V27.837H36.2593V28.819H36.0278V27.8356H35.7177V27.6505L36.57 27.6518Z" fill="white"/>
<path d="M38.0111 27.6519V28.8176H37.7796V28.0593L37.4671 28.8176H37.2902L36.9763 28.0593V28.8176H36.7426V27.6519H37.0083L37.3787 28.5185L37.749 27.6519H38.0111Z" fill="white"/>
</svg>
