<?xml version="1.0" encoding="UTF-8"?>
<svg id="b" xmlns="http://www.w3.org/2000/svg" viewBox="0 0 554.85 690.28">
  <g id="c">
    <path
      d="m112.31,663.43v-24.25l55.54-79.44h33.57v77.68h14.42v26.01h-14.42v22.85h-30.05v-22.85h-59.06Zm61.16-70.65l-29.52,44.64h29.52v-44.64Z"
      style="fill:#5cb4e6; stroke-width:0px;" />
    <path
      d="m279.98,558.86c17.33,0,29.91,5.71,37.7,17.14,7.78,11.42,11.69,26.86,11.69,46.3s-3.9,34.89-11.69,46.31c-7.79,11.43-20.37,17.13-37.7,17.13s-29.91-5.71-37.7-17.13c-7.79-11.42-11.69-26.86-11.69-46.31s3.89-34.88,11.69-46.3c7.79-11.43,20.35-17.14,37.7-17.14Zm0,28.13c-8.08,0-13.42,3.08-15.99,9.23-2.59,6.15-3.88,14.85-3.88,26.1s1.29,19.95,3.88,26.1c2.57,6.15,7.91,9.23,15.99,9.23s13.42-3.08,15.99-9.23c2.57-6.15,3.86-14.85,3.86-26.1s-1.29-19.94-3.86-26.1c-2.57-6.15-7.91-9.23-15.99-9.23Z"
      style="fill:#5cb4e6; stroke-width:0px;" />
    <path
      d="m345.87,663.43v-24.25l55.54-79.44h33.57v77.68h14.42v26.01h-14.42v22.85h-30.05v-22.85h-59.06Zm61.16-70.65l-29.52,44.64h29.52v-44.64Z"
      style="fill:#5cb4e6; stroke-width:0px;" />
    <path
      d="m105.46,667.43v-24.25l55.54-79.44h33.57v77.68h14.42v26.01h-14.42v22.85h-30.05v-22.85h-59.06Zm61.16-70.65l-29.52,44.64h29.52v-44.64Z"
      style="fill:#e1579a; stroke-width:0px;" />
    <path
      d="m273.13,562.86c17.33,0,29.91,5.71,37.7,17.14,7.78,11.42,11.69,26.86,11.69,46.3s-3.9,34.89-11.69,46.31c-7.79,11.43-20.37,17.13-37.7,17.13s-29.91-5.71-37.7-17.13c-7.79-11.42-11.69-26.86-11.69-46.31s3.89-34.88,11.69-46.3c7.79-11.43,20.35-17.14,37.7-17.14Zm0,28.13c-8.08,0-13.42,3.08-15.99,9.23-2.59,6.15-3.88,14.85-3.88,26.1s1.29,19.95,3.88,26.1c2.57,6.15,7.91,9.23,15.99,9.23s13.42-3.08,15.99-9.23c2.57-6.15,3.86-14.85,3.86-26.1s-1.29-19.94-3.86-26.1c-2.57-6.15-7.91-9.23-15.99-9.23Z"
      style="fill:#e1579a; stroke-width:0px;" />
    <path
      d="m339.02,667.43v-24.25l55.54-79.44h33.57v77.68h14.42v26.01h-14.42v22.85h-30.05v-22.85h-59.06Zm61.16-70.65l-29.52,44.64h29.52v-44.64Z"
      style="fill:#e1579a; stroke-width:0px;" />
    <path
      d="m109.1,665.69v-24.25l55.54-79.44h33.57v77.68h14.42v26.01h-14.42v22.85h-30.05v-22.85h-59.06Zm61.16-70.65l-29.52,44.64h29.52v-44.64Z"
      style="fill:#2b183c; stroke-width:0px;" />
    <path
      d="m276.77,561.12c17.33,0,29.91,5.71,37.7,17.14,7.78,11.42,11.69,26.86,11.69,46.3s-3.9,34.89-11.69,46.31c-7.79,11.43-20.37,17.13-37.7,17.13s-29.91-5.71-37.7-17.13c-7.79-11.42-11.69-26.86-11.69-46.31s3.89-34.88,11.69-46.3c7.79-11.43,20.35-17.14,37.7-17.14Zm0,28.13c-8.08,0-13.42,3.08-15.99,9.23-2.59,6.15-3.88,14.85-3.88,26.1s1.29,19.95,3.88,26.1c2.57,6.15,7.91,9.23,15.99,9.23s13.42-3.08,15.99-9.23c2.57-6.15,3.86-14.85,3.86-26.1s-1.29-19.94-3.86-26.1c-2.57-6.15-7.91-9.23-15.99-9.23Z"
      style="fill:#2b183c; stroke-width:0px;" />
    <path
      d="m342.66,665.69v-24.25l55.54-79.44h33.57v77.68h14.42v26.01h-14.42v22.85h-30.05v-22.85h-59.06Zm61.16-70.65l-29.52,44.64h29.52v-44.64Z"
      style="fill:#2b183c; stroke-width:0px;" />
    <path
      d="m545.89,176.27L400.57,13.78C392.48,4.75,380.83-.29,368.7.01l-172.3,4.29c-8.08.21-15.86,3.04-22.19,8.07l-43,34.24-39.78-.86c-1.84,0-3.69.12-5.52.36l-25.54,4.16c-.63,0-1.26.09-1.87.25h-.05c-3.83,1-6.69,4.85-6.69,9.47v58.76l-32.73,37.21c-7.14,8.11-11.08,18.56-11.08,29.37v224.66c0,13.57,8.48,25.69,21.22,30.36l150.49,55.01c9.87,3.6,20.47,4.74,30.87,3.34l34.32-4.66c3.84-.52,7.54-1.83,10.87-3.83l128.22-77.56,118.44,42.42c4.89,1.98,10.21,2.7,15.45,2.07l20.5-2.44c9.43-1.11,16.53-9.11,16.53-18.6v-236.31c0-8.67-3.18-17.04-8.96-23.51Zm-161.95,173.14l-156.27,87.97v-210.15l153.83-149.55,128.34,134.04.02,185.15-125.92-47.47Z"
      style="fill:#5cb4e6; stroke-width:0px;" />
    <polygon
      points="340.27 224.36 360.98 240.78 349.55 255.19 328.85 238.76 312.42 259.47 298.02 248.04 314.45 227.34 293.74 210.91 305.17 196.51 325.87 212.93 342.3 192.23 356.7 203.65 340.27 224.36"
      style="fill:#5cb4e6; stroke-width:0px;" />
    <polygon
      points="429.71 214.53 450.42 230.96 438.99 245.36 418.29 228.93 401.86 249.64 387.46 238.21 403.89 217.51 383.18 201.08 394.6 186.68 415.31 203.11 431.74 182.4 446.14 193.83 429.71 214.53"
      style="fill:#5cb4e6; stroke-width:0px;" />
    <polygon
      points="470.37 281.87 470.37 307.13 448.4 310.28 448.4 330.6 431.23 333.06 431.23 312.74 279.38 334.51 279.38 309.25 470.37 281.87"
      style="fill:#5cb4e6; stroke-width:0px;" />
    <path
      d="m537.94,178.97L392.62,16.48c-8.09-9.04-19.74-14.07-31.87-13.77l-172.3,4.29c-8.08.21-15.86,3.04-22.19,8.07l-43,34.24-39.78-.86c-1.84,0-3.69.12-5.52.36l-25.54,4.16c-.63,0-1.26.09-1.87.25h-.05c-3.83,1-6.69,4.85-6.69,9.47v58.76l-32.73,37.21c-7.14,8.11-11.08,18.56-11.08,29.37v224.66c0,13.57,8.48,25.69,21.22,30.36l150.49,55.01c9.87,3.6,20.47,4.74,30.87,3.34l34.32-4.66c3.84-.52,7.54-1.83,10.87-3.83l128.22-77.56,118.44,42.42c4.89,1.98,10.21,2.7,15.45,2.07l20.5-2.44c9.43-1.11,16.53-9.11,16.53-18.6v-236.31c0-8.67-3.18-17.04-8.96-23.51Zm-161.95,173.14l-156.27,87.97v-210.15l153.83-149.55,128.34,134.04.02,185.15-125.92-47.47Z"
      style="fill:#e1579a; stroke-width:0px;" />
    <polygon
      points="332.32 227.05 353.03 243.48 341.6 257.88 320.89 241.45 304.47 262.16 290.07 250.73 306.49 230.03 285.79 213.6 297.21 199.2 317.92 215.63 334.34 194.92 348.75 206.35 332.32 227.05"
      style="fill:#e1579a; stroke-width:0px;" />
    <polygon
      points="421.76 217.22 442.46 233.65 431.04 248.05 410.33 231.63 393.91 252.33 379.51 240.91 395.93 220.2 375.23 203.78 386.65 189.37 407.36 205.8 423.78 185.09 438.18 196.52 421.76 217.22"
      style="fill:#e1579a; stroke-width:0px;" />
    <polygon
      points="462.42 284.56 462.42 309.83 440.44 312.98 440.44 333.29 423.28 335.76 423.28 315.44 271.43 337.2 271.43 311.95 462.42 284.56"
      style="fill:#e1579a; stroke-width:0px;" />
    <path
      d="m541.63,176.95L396.31,14.46c-8.09-9.04-19.74-14.07-31.87-13.77l-172.3,4.29c-8.08.21-15.86,3.04-22.19,8.07l-43,34.24-39.78-.86c-1.84,0-3.69.12-5.52.36l-25.54,4.16c-.63,0-1.26.09-1.87.25h-.05c-3.83,1-6.69,4.85-6.69,9.47v58.76l-32.73,37.21c-7.14,8.11-11.08,18.56-11.08,29.37v224.66c0,13.57,8.48,25.69,21.22,30.36l150.49,55.01c9.87,3.6,20.47,4.74,30.87,3.34l34.32-4.66c3.84-.52,7.54-1.83,10.87-3.83l128.22-77.56,118.44,42.42c4.89,1.98,10.21,2.7,15.45,2.07l20.5-2.44c9.43-1.11,16.53-9.11,16.53-18.6v-236.31c0-8.67-3.18-17.04-8.96-23.51Zm-161.95,173.14l-156.27,87.97v-210.15l153.83-149.55,128.34,134.04.02,185.15-125.92-47.47Z"
      style="fill:#2b183c; stroke-width:0px;" />
    <polygon
      points="336.02 225.03 356.72 241.46 345.3 255.86 324.59 239.43 308.17 260.14 293.76 248.71 310.19 228.01 289.48 211.58 300.91 197.18 321.61 213.61 338.04 192.9 352.44 204.33 336.02 225.03"
      style="fill:#2b183c; stroke-width:0px;" />
    <polygon
      points="425.45 215.2 446.16 231.63 434.74 246.03 414.03 229.61 397.6 250.31 383.2 238.89 399.63 218.18 378.92 201.76 390.35 187.35 411.05 203.78 427.48 183.07 441.88 194.5 425.45 215.2"
      style="fill:#2b183c; stroke-width:0px;" />
    <polygon
      points="466.11 282.54 466.11 307.81 444.14 310.96 444.14 331.27 426.97 333.74 426.97 313.42 275.13 335.18 275.13 309.93 466.11 282.54"
      style="fill:#2b183c; stroke-width:0px;" />
  </g>
</svg>