<?xml version="1.0" encoding="UTF-8" standalone="no"?>

<svg width="24" height="24" viewBox="0 0 24 24" version="1.1" id="svg1" xmlns="http://www.w3.org/2000/svg"
   xmlns:svg="http://www.w3.org/2000/svg">
   <defs id="defs1" />
   <g id="layer1" transform="translate(-1384)">
      <path
         style="color:#000000;fill:#595959;fill-opacity:1;stroke-width:1.05705;stroke-linecap:round;stroke-linejoin:round;-inkscape-stroke:none;paint-order:stroke markers fill"
         d="m 1406.6015,0.71929801 a 1.5855804,1.5855804 0 0 0 -1.1686,0.33032929 c 0,0 -8.2576,6.7121401 -15.8578,17.0924747 -1.2422,-5.08936 -2.6034,-8.2953939 -2.6034,-8.2953939 a 1.5855804,1.5855804 0 0 0 -2.1554,-0.6173027 1.5855804,1.5855804 0 0 0 -0.6174,2.1553986 c 0,0 1.8032,3.190223 3.0949,10.593246 a 1.585739,1.585739 0 0 0 2.8779,0.611109 c 7.7567,-11.570518 17.2247,-19.049675 17.2247,-19.0496749 a 1.5855804,1.5855804 0 0 0 0.2643,-2.2255934 1.5855804,1.5855804 0 0 0 -1.0592,-0.59459269 z"
         id="path63" />
   </g>
</svg>