<?xml version="1.0" encoding="UTF-8" standalone="no"?>
<!-- Created with Inkscape (http://www.inkscape.org/) -->

<svg
   width="24"
   height="24"
   viewBox="0 0 24 24"
   version="1.1"
   id="svg1"
   xmlns="http://www.w3.org/2000/svg"
   xmlns:svg="http://www.w3.org/2000/svg">
  <defs
     id="defs1" />
  <g
     id="layer1"
     transform="translate(-1350)">
    <path
       style="color:#000000;fill:#333333;fill-opacity:1;stroke-linecap:round;stroke-linejoin:round;-inkscape-stroke:none;paint-order:stroke markers fill"
       d="m 1372.2754,1.0625 c 0,0 -9.1921,7.4000647 -17.2949,18.839844 -1.3555,-6.260378 -3,-9.835938 -3,-9.835938 a 1,1 0 0 0 -1.3594,-0.3886716 1,1 0 0 0 -0.3906,1.3593746 c 0,0 1.9463,3.469203 3.3105,11.28711 a 1.0001,1.0001 0 0 0 1.8164,0.384765 c 8.1789,-12.200308 18.1563,-20.0761715 18.1563,-20.0761715 a 1,1 0 0 0 0.166,-1.4042969 1,1 0 0 0 -1.4043,-0.1660156 z"
       id="path61" />
  </g>
</svg>
